# xmcd
#
# Track frame offsets:
#	150
#	15755
#	35140
#	45250
#	58912
#	82580
#	97800
#	122457
#	141227
#	164740
#
# Disc length: 2449 seconds
#
# Revision: 0
# Processed by: cddbd v1.4PL0 Copyright (c) Steve Scherf et al.
# Submitted via: audiograbber 1.81.03
#
DISCID=71098f0a
DTITLE=Various Artist - Blues Harp Greats (ED CD 7023)
DYEAR=1997
DGENRE=Blues
TTITLE0=James Coton, Paul Butterfield, Billy Boy Arnold and Elvin Bishop - Three 
TTITLE0=Harp Boogie (Instrumental)
TTITLE1=Carey Bell - (I Shoulda Did) What My Mama Told Me
TTITLE2=Treat Her Right - Come Back Baby
TTITLE3=James Montgomery Band - The Oven Is On (Instrumental)
TTITLE4=Magic Dick and Jay Geils - The Jumpin' Blues
TTITLE5=Annie Raines and  Paul Rishell - Ol' Heartbreak
TTITLE6=Butler Twins - Hey Baby(Don't You Know Your Daddy Loves You So
TTITLE7=Mark Hummel - Rockin' The Riverside (Instrumental)
TTITLE8=Mojo Buford - Pickin' Rags
TTITLE9=Charlie Sayles - Lamp Post
EXTD=
EXTT0=
EXTT1=
EXTT2=
EXTT3=
EXTT4=
EXTT5=
EXTT6=
EXTT7=
EXTT8=
EXTT9=
PLAYORDER=
